<mxfile host="app.diagrams.net" modified="2020-10-09T09:07:01.983Z" agent="5.0 (Windows NT 10.0; Win64; x64) AppleWebKit/537.36 (KHTML, like Gecko) Chrome/86.0.4240.75 Safari/537.36" etag="xe91DfTbzy0i7NVgdYiG" version="13.7.9" type="gitlab">
  <diagram id="OjfDf2mp4X_5ovbanYRl" name="Page-1">
    <mxGraphModel dx="849" dy="565" grid="0" gridSize="10" guides="1" tooltips="1" connect="1" arrows="1" fold="1" page="1" pageScale="1" pageWidth="827" pageHeight="1169" background="#ffffff" math="0" shadow="0" extFonts="Permanent Marker^https://fonts.googleapis.com/css?family=Permanent+Marker">
      <root>
        <mxCell id="0" />
        <mxCell id="1" parent="0" />
        <mxCell id="hRKfSwiD_nlizp8E8gX8-70" style="edgeStyle=orthogonalEdgeStyle;rounded=0;orthogonalLoop=1;jettySize=auto;html=1;entryX=-0.006;entryY=0.077;entryDx=0;entryDy=0;entryPerimeter=0;endArrow=none;endFill=0;endSize=8;strokeWidth=1;" parent="1" source="hRKfSwiD_nlizp8E8gX8-2" target="hRKfSwiD_nlizp8E8gX8-22" edge="1">
          <mxGeometry relative="1" as="geometry" />
        </mxCell>
        <mxCell id="hRKfSwiD_nlizp8E8gX8-71" style="edgeStyle=orthogonalEdgeStyle;rounded=0;orthogonalLoop=1;jettySize=auto;html=1;entryX=1.006;entryY=0.923;entryDx=0;entryDy=0;entryPerimeter=0;endArrow=diamond;endFill=1;endSize=8;strokeWidth=1;" parent="1" source="hRKfSwiD_nlizp8E8gX8-29" target="hRKfSwiD_nlizp8E8gX8-37" edge="1">
          <mxGeometry relative="1" as="geometry" />
        </mxCell>
        <mxCell id="hRKfSwiD_nlizp8E8gX8-54" style="edgeStyle=orthogonalEdgeStyle;rounded=0;orthogonalLoop=1;jettySize=auto;html=1;exitX=0.5;exitY=0;exitDx=0;exitDy=0;entryX=0.5;entryY=1;entryDx=0;entryDy=0;endArrow=diamond;endFill=1;strokeWidth=1;endSize=8;" parent="1" source="hRKfSwiD_nlizp8E8gX8-33" target="hRKfSwiD_nlizp8E8gX8-29" edge="1">
          <mxGeometry relative="1" as="geometry" />
        </mxCell>
        <mxCell id="hRKfSwiD_nlizp8E8gX8-90" style="edgeStyle=orthogonalEdgeStyle;rounded=0;orthogonalLoop=1;jettySize=auto;html=1;exitX=0.5;exitY=0;exitDx=0;exitDy=0;endArrow=diamond;endFill=1;endSize=9;strokeWidth=1;fontSize=21;entryX=0.5;entryY=1;entryDx=0;entryDy=0;" parent="1" source="hRKfSwiD_nlizp8E8gX8-12" target="hRKfSwiD_nlizp8E8gX8-2" edge="1">
          <mxGeometry relative="1" as="geometry">
            <mxPoint x="415" y="406" as="targetPoint" />
            <Array as="points">
              <mxPoint x="400" y="520" />
            </Array>
          </mxGeometry>
        </mxCell>
        <mxCell id="hRKfSwiD_nlizp8E8gX8-89" style="edgeStyle=orthogonalEdgeStyle;rounded=0;orthogonalLoop=1;jettySize=auto;html=1;exitX=1;exitY=0.5;exitDx=0;exitDy=0;entryX=-0.019;entryY=0.192;entryDx=0;entryDy=0;entryPerimeter=0;endArrow=block;endFill=0;endSize=9;strokeWidth=1;fontSize=21;" parent="1" source="hRKfSwiD_nlizp8E8gX8-48" target="hRKfSwiD_nlizp8E8gX8-42" edge="1">
          <mxGeometry relative="1" as="geometry" />
        </mxCell>
        <mxCell id="hRKfSwiD_nlizp8E8gX8-91" style="edgeStyle=orthogonalEdgeStyle;rounded=0;orthogonalLoop=1;jettySize=auto;html=1;exitX=1;exitY=0.5;exitDx=0;exitDy=0;entryX=0;entryY=0.5;entryDx=0;entryDy=0;endArrow=none;endFill=0;endSize=9;strokeWidth=1;fontSize=21;" parent="1" source="hRKfSwiD_nlizp8E8gX8-63" target="hRKfSwiD_nlizp8E8gX8-40" edge="1">
          <mxGeometry relative="1" as="geometry">
            <Array as="points">
              <mxPoint x="480" y="316" />
              <mxPoint x="640" y="316" />
            </Array>
          </mxGeometry>
        </mxCell>
        <mxCell id="hRKfSwiD_nlizp8E8gX8-102" style="edgeStyle=orthogonalEdgeStyle;rounded=0;orthogonalLoop=1;jettySize=auto;html=1;exitX=0.5;exitY=1;exitDx=0;exitDy=0;entryX=0.125;entryY=0;entryDx=0;entryDy=0;entryPerimeter=0;endArrow=none;endFill=0;endSize=9;strokeWidth=1;fontSize=12;" parent="1" source="hRKfSwiD_nlizp8E8gX8-96" target="hRKfSwiD_nlizp8E8gX8-12" edge="1">
          <mxGeometry relative="1" as="geometry">
            <Array as="points">
              <mxPoint x="160" y="321" />
              <mxPoint x="281" y="321" />
              <mxPoint x="281" y="520" />
            </Array>
          </mxGeometry>
        </mxCell>
        <mxCell id="hRKfSwiD_nlizp8E8gX8-105" value="0...*" style="text;html=1;strokeColor=none;fillColor=none;align=center;verticalAlign=middle;whiteSpace=wrap;rounded=0;fontSize=12;" parent="1" vertex="1">
          <mxGeometry x="650" y="102" width="40" height="20" as="geometry" />
        </mxCell>
        <mxCell id="hRKfSwiD_nlizp8E8gX8-106" value="1,1" style="text;html=1;strokeColor=none;fillColor=none;align=center;verticalAlign=middle;whiteSpace=wrap;rounded=0;fontSize=12;" parent="1" vertex="1">
          <mxGeometry x="730" y="230" width="40" height="20" as="geometry" />
        </mxCell>
        <mxCell id="hRKfSwiD_nlizp8E8gX8-107" value="1,1" style="text;html=1;strokeColor=none;fillColor=none;align=center;verticalAlign=middle;whiteSpace=wrap;rounded=0;fontSize=12;" parent="1" vertex="1">
          <mxGeometry x="730" y="446" width="40" height="20" as="geometry" />
        </mxCell>
        <mxCell id="hRKfSwiD_nlizp8E8gX8-108" value="0...*" style="text;html=1;strokeColor=none;fillColor=none;align=center;verticalAlign=middle;whiteSpace=wrap;rounded=0;fontSize=12;" parent="1" vertex="1">
          <mxGeometry x="650" y="380" width="70" height="20" as="geometry" />
        </mxCell>
        <mxCell id="hRKfSwiD_nlizp8E8gX8-21" value="Card Game" style="swimlane;fontStyle=1;align=center;verticalAlign=top;childLayout=stackLayout;horizontal=1;startSize=26;horizontalStack=0;resizeParent=1;resizeParentMax=0;resizeLast=0;collapsible=1;marginBottom=0;" parent="1" vertex="1">
          <mxGeometry x="480" y="80" width="160" height="112" as="geometry" />
        </mxCell>
        <mxCell id="hRKfSwiD_nlizp8E8gX8-37" value="+ id_cg : num" style="text;strokeColor=none;fillColor=none;align=left;verticalAlign=top;spacingLeft=4;spacingRight=4;overflow=hidden;rotatable=0;points=[[0,0.5],[1,0.5]];portConstraint=eastwest;fontStyle=4" parent="hRKfSwiD_nlizp8E8gX8-21" vertex="1">
          <mxGeometry y="26" width="160" height="26" as="geometry" />
        </mxCell>
        <mxCell id="hRKfSwiD_nlizp8E8gX8-22" value="+id_group# : num" style="text;strokeColor=none;fillColor=none;align=left;verticalAlign=top;spacingLeft=4;spacingRight=4;overflow=hidden;rotatable=0;points=[[0,0.5],[1,0.5]];portConstraint=eastwest;" parent="hRKfSwiD_nlizp8E8gX8-21" vertex="1">
          <mxGeometry y="52" width="160" height="26" as="geometry" />
        </mxCell>
        <mxCell id="OM8K8uQX1g5427cTju4Y-11" value="+id_game# : num" style="text;strokeColor=none;fillColor=none;align=left;verticalAlign=top;spacingLeft=4;spacingRight=4;overflow=hidden;rotatable=0;points=[[0,0.5],[1,0.5]];portConstraint=eastwest;" parent="hRKfSwiD_nlizp8E8gX8-21" vertex="1">
          <mxGeometry y="78" width="160" height="26" as="geometry" />
        </mxCell>
        <mxCell id="hRKfSwiD_nlizp8E8gX8-23" value="" style="line;strokeWidth=1;fillColor=none;align=left;verticalAlign=middle;spacingTop=-1;spacingLeft=3;spacingRight=3;rotatable=0;labelPosition=right;points=[];portConstraint=eastwest;" parent="hRKfSwiD_nlizp8E8gX8-21" vertex="1">
          <mxGeometry y="104" width="160" height="8" as="geometry" />
        </mxCell>
        <mxCell id="hRKfSwiD_nlizp8E8gX8-2" value="PlayerGroup" style="swimlane;fontStyle=1;align=center;verticalAlign=top;childLayout=stackLayout;horizontal=1;startSize=26;horizontalStack=0;resizeParent=1;resizeParentMax=0;resizeLast=0;collapsible=1;marginBottom=0;" parent="1" vertex="1">
          <mxGeometry x="320" y="260" width="160" height="116" as="geometry" />
        </mxCell>
        <mxCell id="hRKfSwiD_nlizp8E8gX8-3" value="+ id_group : num&#xa;" style="text;strokeColor=none;fillColor=none;align=left;verticalAlign=top;spacingLeft=4;spacingRight=4;overflow=hidden;rotatable=0;points=[[0,0.5],[1,0.5]];portConstraint=eastwest;fontStyle=4" parent="hRKfSwiD_nlizp8E8gX8-2" vertex="1">
          <mxGeometry y="26" width="160" height="24" as="geometry" />
        </mxCell>
        <mxCell id="hRKfSwiD_nlizp8E8gX8-63" value="+ nb_players: num" style="text;strokeColor=none;fillColor=none;align=left;verticalAlign=top;spacingLeft=4;spacingRight=4;overflow=hidden;rotatable=0;points=[[0,0.5],[1,0.5]];portConstraint=eastwest;fontStyle=0" parent="hRKfSwiD_nlizp8E8gX8-2" vertex="1">
          <mxGeometry y="50" width="160" height="24" as="geometry" />
        </mxCell>
        <mxCell id="rLnb3EBj2NEMgNKpq2du-5" value="+id_pile# : num" style="text;strokeColor=none;fillColor=none;align=left;verticalAlign=top;spacingLeft=4;spacingRight=4;overflow=hidden;rotatable=0;points=[[0,0.5],[1,0.5]];portConstraint=eastwest;fontStyle=0;fontSize=12;" vertex="1" parent="hRKfSwiD_nlizp8E8gX8-2">
          <mxGeometry y="74" width="160" height="26" as="geometry" />
        </mxCell>
        <mxCell id="hRKfSwiD_nlizp8E8gX8-4" value="" style="line;strokeWidth=1;fillColor=none;align=left;verticalAlign=middle;spacingTop=-1;spacingLeft=3;spacingRight=3;rotatable=0;labelPosition=right;points=[];portConstraint=eastwest;" parent="hRKfSwiD_nlizp8E8gX8-2" vertex="1">
          <mxGeometry y="100" width="160" height="16" as="geometry" />
        </mxCell>
        <mxCell id="hRKfSwiD_nlizp8E8gX8-29" value="Pile" style="swimlane;fontStyle=1;align=center;verticalAlign=top;childLayout=stackLayout;horizontal=1;startSize=26;horizontalStack=0;resizeParent=1;resizeParentMax=0;resizeLast=0;collapsible=1;marginBottom=0;" parent="1" vertex="1">
          <mxGeometry x="640" y="260" width="160" height="112" as="geometry" />
        </mxCell>
        <mxCell id="hRKfSwiD_nlizp8E8gX8-30" value="+id_pile : num" style="text;strokeColor=none;fillColor=none;align=left;verticalAlign=top;spacingLeft=4;spacingRight=4;overflow=hidden;rotatable=0;points=[[0,0.5],[1,0.5]];portConstraint=eastwest;fontStyle=4" parent="hRKfSwiD_nlizp8E8gX8-29" vertex="1">
          <mxGeometry y="26" width="160" height="26" as="geometry" />
        </mxCell>
        <mxCell id="hRKfSwiD_nlizp8E8gX8-40" value="+nombre_cartes : num" style="text;strokeColor=none;fillColor=none;align=left;verticalAlign=top;spacingLeft=4;spacingRight=4;overflow=hidden;rotatable=0;points=[[0,0.5],[1,0.5]];portConstraint=eastwest;" parent="hRKfSwiD_nlizp8E8gX8-29" vertex="1">
          <mxGeometry y="52" width="160" height="26" as="geometry" />
        </mxCell>
        <mxCell id="hRKfSwiD_nlizp8E8gX8-41" value="+id_cg# : num" style="text;strokeColor=none;fillColor=none;align=left;verticalAlign=top;spacingLeft=4;spacingRight=4;overflow=hidden;rotatable=0;points=[[0,0.5],[1,0.5]];portConstraint=eastwest;" parent="hRKfSwiD_nlizp8E8gX8-29" vertex="1">
          <mxGeometry y="78" width="160" height="26" as="geometry" />
        </mxCell>
        <mxCell id="hRKfSwiD_nlizp8E8gX8-31" value="" style="line;strokeWidth=1;fillColor=none;align=left;verticalAlign=middle;spacingTop=-1;spacingLeft=3;spacingRight=3;rotatable=0;labelPosition=right;points=[];portConstraint=eastwest;" parent="hRKfSwiD_nlizp8E8gX8-29" vertex="1">
          <mxGeometry y="104" width="160" height="8" as="geometry" />
        </mxCell>
        <mxCell id="hRKfSwiD_nlizp8E8gX8-33" value="Card" style="swimlane;fontStyle=1;align=center;verticalAlign=top;childLayout=stackLayout;horizontal=1;startSize=26;horizontalStack=0;resizeParent=1;resizeParentMax=0;resizeLast=0;collapsible=1;marginBottom=0;" parent="1" vertex="1">
          <mxGeometry x="640" y="470" width="160" height="86" as="geometry" />
        </mxCell>
        <mxCell id="hRKfSwiD_nlizp8E8gX8-60" value="+value,coulor : str" style="text;strokeColor=none;fillColor=none;align=left;verticalAlign=top;spacingLeft=4;spacingRight=4;overflow=hidden;rotatable=0;points=[[0,0.5],[1,0.5]];portConstraint=eastwest;fontStyle=4" parent="hRKfSwiD_nlizp8E8gX8-33" vertex="1">
          <mxGeometry y="26" width="160" height="26" as="geometry" />
        </mxCell>
        <mxCell id="hRKfSwiD_nlizp8E8gX8-34" value="+id_pile# : num&#xa;" style="text;strokeColor=none;fillColor=none;align=left;verticalAlign=top;spacingLeft=4;spacingRight=4;overflow=hidden;rotatable=0;points=[[0,0.5],[1,0.5]];portConstraint=eastwest;fontStyle=0" parent="hRKfSwiD_nlizp8E8gX8-33" vertex="1">
          <mxGeometry y="52" width="160" height="26" as="geometry" />
        </mxCell>
        <mxCell id="hRKfSwiD_nlizp8E8gX8-35" value="" style="line;strokeWidth=1;fillColor=none;align=left;verticalAlign=middle;spacingTop=-1;spacingLeft=3;spacingRight=3;rotatable=0;labelPosition=right;points=[];portConstraint=eastwest;" parent="hRKfSwiD_nlizp8E8gX8-33" vertex="1">
          <mxGeometry y="78" width="160" height="8" as="geometry" />
        </mxCell>
        <mxCell id="hRKfSwiD_nlizp8E8gX8-25" value="Game" style="swimlane;fontStyle=1;align=center;verticalAlign=top;childLayout=stackLayout;horizontal=1;startSize=26;horizontalStack=0;resizeParent=1;resizeParentMax=0;resizeLast=0;collapsible=1;marginBottom=0;" parent="1" vertex="1">
          <mxGeometry x="160" y="30" width="160" height="164" as="geometry" />
        </mxCell>
        <mxCell id="hRKfSwiD_nlizp8E8gX8-72" value="+id_game : num" style="text;strokeColor=none;fillColor=none;align=left;verticalAlign=top;spacingLeft=4;spacingRight=4;overflow=hidden;rotatable=0;points=[[0,0.5],[1,0.5]];portConstraint=eastwest;fontStyle=4" parent="hRKfSwiD_nlizp8E8gX8-25" vertex="1">
          <mxGeometry y="26" width="160" height="26" as="geometry" />
        </mxCell>
        <mxCell id="hRKfSwiD_nlizp8E8gX8-73" value="+value_card : num&#xa;" style="text;strokeColor=none;fillColor=none;align=left;verticalAlign=top;spacingLeft=4;spacingRight=4;overflow=hidden;rotatable=0;points=[[0,0.5],[1,0.5]];portConstraint=eastwest;" parent="hRKfSwiD_nlizp8E8gX8-25" vertex="1">
          <mxGeometry y="52" width="160" height="26" as="geometry" />
        </mxCell>
        <mxCell id="hRKfSwiD_nlizp8E8gX8-74" value="+end_loop : str" style="text;strokeColor=none;fillColor=none;align=left;verticalAlign=top;spacingLeft=4;spacingRight=4;overflow=hidden;rotatable=0;points=[[0,0.5],[1,0.5]];portConstraint=eastwest;" parent="hRKfSwiD_nlizp8E8gX8-25" vertex="1">
          <mxGeometry y="78" width="160" height="26" as="geometry" />
        </mxCell>
        <mxCell id="hRKfSwiD_nlizp8E8gX8-75" value="+end_game : str" style="text;strokeColor=none;fillColor=none;align=left;verticalAlign=top;spacingLeft=4;spacingRight=4;overflow=hidden;rotatable=0;points=[[0,0.5],[1,0.5]];portConstraint=eastwest;" parent="hRKfSwiD_nlizp8E8gX8-25" vertex="1">
          <mxGeometry y="104" width="160" height="26" as="geometry" />
        </mxCell>
        <mxCell id="hRKfSwiD_nlizp8E8gX8-26" value="+victory_condition : str" style="text;strokeColor=none;fillColor=none;align=left;verticalAlign=top;spacingLeft=4;spacingRight=4;overflow=hidden;rotatable=0;points=[[0,0.5],[1,0.5]];portConstraint=eastwest;" parent="hRKfSwiD_nlizp8E8gX8-25" vertex="1">
          <mxGeometry y="130" width="160" height="26" as="geometry" />
        </mxCell>
        <mxCell id="hRKfSwiD_nlizp8E8gX8-27" value="" style="line;strokeWidth=1;fillColor=none;align=left;verticalAlign=middle;spacingTop=-1;spacingLeft=3;spacingRight=3;rotatable=0;labelPosition=right;points=[];portConstraint=eastwest;" parent="hRKfSwiD_nlizp8E8gX8-25" vertex="1">
          <mxGeometry y="156" width="160" height="8" as="geometry" />
        </mxCell>
        <mxCell id="hRKfSwiD_nlizp8E8gX8-17" value="player" style="swimlane;fontStyle=1;align=center;verticalAlign=top;childLayout=stackLayout;horizontal=1;startSize=26;horizontalStack=0;resizeParent=1;resizeParentMax=0;resizeLast=0;collapsible=1;marginBottom=0;" parent="1" vertex="1">
          <mxGeometry x="80" y="520" width="160" height="242" as="geometry" />
        </mxCell>
        <mxCell id="hRKfSwiD_nlizp8E8gX8-44" value="+id_player : num" style="text;strokeColor=none;fillColor=none;align=left;verticalAlign=top;spacingLeft=4;spacingRight=4;overflow=hidden;rotatable=0;points=[[0,0.5],[1,0.5]];portConstraint=eastwest;fontStyle=4" parent="hRKfSwiD_nlizp8E8gX8-17" vertex="1">
          <mxGeometry y="26" width="160" height="26" as="geometry" />
        </mxCell>
        <mxCell id="hRKfSwiD_nlizp8E8gX8-45" value="+password: str" style="text;strokeColor=none;fillColor=none;align=left;verticalAlign=top;spacingLeft=4;spacingRight=4;overflow=hidden;rotatable=0;points=[[0,0.5],[1,0.5]];portConstraint=eastwest;" parent="hRKfSwiD_nlizp8E8gX8-17" vertex="1">
          <mxGeometry y="52" width="160" height="26" as="geometry" />
        </mxCell>
        <mxCell id="hRKfSwiD_nlizp8E8gX8-48" value="+score : num" style="text;strokeColor=none;fillColor=none;align=left;verticalAlign=top;spacingLeft=4;spacingRight=4;overflow=hidden;rotatable=0;points=[[0,0.5],[1,0.5]];portConstraint=eastwest;" parent="hRKfSwiD_nlizp8E8gX8-17" vertex="1">
          <mxGeometry y="78" width="160" height="26" as="geometry" />
        </mxCell>
        <mxCell id="hRKfSwiD_nlizp8E8gX8-19" value="" style="line;strokeWidth=1;fillColor=none;align=left;verticalAlign=middle;spacingTop=-1;spacingLeft=3;spacingRight=3;rotatable=0;labelPosition=right;points=[];portConstraint=eastwest;" parent="hRKfSwiD_nlizp8E8gX8-17" vertex="1">
          <mxGeometry y="104" width="160" height="8" as="geometry" />
        </mxCell>
        <mxCell id="hRKfSwiD_nlizp8E8gX8-46" value="+loadGame()" style="text;strokeColor=none;fillColor=none;align=left;verticalAlign=top;spacingLeft=4;spacingRight=4;overflow=hidden;rotatable=0;points=[[0,0.5],[1,0.5]];portConstraint=eastwest;" parent="hRKfSwiD_nlizp8E8gX8-17" vertex="1">
          <mxGeometry y="112" width="160" height="26" as="geometry" />
        </mxCell>
        <mxCell id="hRKfSwiD_nlizp8E8gX8-47" value="+changePassword()" style="text;strokeColor=none;fillColor=none;align=left;verticalAlign=top;spacingLeft=4;spacingRight=4;overflow=hidden;rotatable=0;points=[[0,0.5],[1,0.5]];portConstraint=eastwest;" parent="hRKfSwiD_nlizp8E8gX8-17" vertex="1">
          <mxGeometry y="138" width="160" height="26" as="geometry" />
        </mxCell>
        <mxCell id="hRKfSwiD_nlizp8E8gX8-49" value="+displayFinishedGame()" style="text;strokeColor=none;fillColor=none;align=left;verticalAlign=top;spacingLeft=4;spacingRight=4;overflow=hidden;rotatable=0;points=[[0,0.5],[1,0.5]];portConstraint=eastwest;" parent="hRKfSwiD_nlizp8E8gX8-17" vertex="1">
          <mxGeometry y="164" width="160" height="26" as="geometry" />
        </mxCell>
        <mxCell id="xn5o_ZtAHEq3bz5dLrVA-13" value="+seeScores()" style="text;strokeColor=none;fillColor=none;align=left;verticalAlign=top;spacingLeft=4;spacingRight=4;overflow=hidden;rotatable=0;points=[[0,0.5],[1,0.5]];portConstraint=eastwest;" parent="hRKfSwiD_nlizp8E8gX8-17" vertex="1">
          <mxGeometry y="190" width="160" height="26" as="geometry" />
        </mxCell>
        <mxCell id="xn5o_ZtAHEq3bz5dLrVA-14" value="+continuePreviousGame()" style="text;strokeColor=none;fillColor=none;align=left;verticalAlign=top;spacingLeft=4;spacingRight=4;overflow=hidden;rotatable=0;points=[[0,0.5],[1,0.5]];portConstraint=eastwest;" parent="hRKfSwiD_nlizp8E8gX8-17" vertex="1">
          <mxGeometry y="216" width="160" height="26" as="geometry" />
        </mxCell>
        <mxCell id="hRKfSwiD_nlizp8E8gX8-12" value="Guest" style="swimlane;fontStyle=1;align=center;verticalAlign=top;childLayout=stackLayout;horizontal=1;startSize=26;horizontalStack=0;resizeParent=1;resizeParentMax=0;resizeLast=0;collapsible=1;marginBottom=0;" parent="1" vertex="1">
          <mxGeometry x="320" y="520" width="158" height="303" as="geometry" />
        </mxCell>
        <mxCell id="hRKfSwiD_nlizp8E8gX8-50" value="+id_temporaire : num" style="text;strokeColor=none;fillColor=none;align=left;verticalAlign=top;spacingLeft=4;spacingRight=4;overflow=hidden;rotatable=0;points=[[0,0.5],[1,0.5]];portConstraint=eastwest;fontStyle=4" parent="hRKfSwiD_nlizp8E8gX8-12" vertex="1">
          <mxGeometry y="26" width="158" height="26" as="geometry" />
        </mxCell>
        <mxCell id="hRKfSwiD_nlizp8E8gX8-104" value="+id_group# : num" style="text;strokeColor=none;fillColor=none;align=left;verticalAlign=top;spacingLeft=4;spacingRight=4;overflow=hidden;rotatable=0;points=[[0,0.5],[1,0.5]];portConstraint=eastwest;fontStyle=0;fontSize=12;" parent="hRKfSwiD_nlizp8E8gX8-12" vertex="1">
          <mxGeometry y="52" width="158" height="26" as="geometry" />
        </mxCell>
        <mxCell id="hRKfSwiD_nlizp8E8gX8-13" value="+id_hand# : num" style="text;strokeColor=none;fillColor=none;align=left;verticalAlign=top;spacingLeft=4;spacingRight=4;overflow=hidden;rotatable=0;points=[[0,0.5],[1,0.5]];portConstraint=eastwest;fontStyle=0" parent="hRKfSwiD_nlizp8E8gX8-12" vertex="1">
          <mxGeometry y="78" width="158" height="26" as="geometry" />
        </mxCell>
        <mxCell id="hRKfSwiD_nlizp8E8gX8-14" value="" style="line;strokeWidth=1;fillColor=none;align=left;verticalAlign=middle;spacingTop=-1;spacingLeft=3;spacingRight=3;rotatable=0;labelPosition=right;points=[];portConstraint=eastwest;" parent="hRKfSwiD_nlizp8E8gX8-12" vertex="1">
          <mxGeometry y="104" width="158" height="21" as="geometry" />
        </mxCell>
        <mxCell id="xn5o_ZtAHEq3bz5dLrVA-28" value="+joinGame" style="text;strokeColor=none;fillColor=none;align=left;verticalAlign=top;spacingLeft=4;spacingRight=4;overflow=hidden;rotatable=0;points=[[0,0.5],[1,0.5]];portConstraint=eastwest;" parent="hRKfSwiD_nlizp8E8gX8-12" vertex="1">
          <mxGeometry y="125" width="158" height="26" as="geometry" />
        </mxCell>
        <mxCell id="xn5o_ZtAHEq3bz5dLrVA-27" value="+initEmptyGame()" style="text;strokeColor=none;fillColor=none;align=left;verticalAlign=top;spacingLeft=4;spacingRight=4;overflow=hidden;rotatable=0;points=[[0,0.5],[1,0.5]];portConstraint=eastwest;" parent="hRKfSwiD_nlizp8E8gX8-12" vertex="1">
          <mxGeometry y="151" width="158" height="26" as="geometry" />
        </mxCell>
        <mxCell id="xn5o_ZtAHEq3bz5dLrVA-15" value="+connexion()" style="text;strokeColor=none;fillColor=none;align=left;verticalAlign=top;spacingLeft=4;spacingRight=4;overflow=hidden;rotatable=0;points=[[0,0.5],[1,0.5]];portConstraint=eastwest;" parent="hRKfSwiD_nlizp8E8gX8-12" vertex="1">
          <mxGeometry y="177" width="158" height="26" as="geometry" />
        </mxCell>
        <mxCell id="xn5o_ZtAHEq3bz5dLrVA-16" value="+createAccount()" style="text;strokeColor=none;fillColor=none;align=left;verticalAlign=top;spacingLeft=4;spacingRight=4;overflow=hidden;rotatable=0;points=[[0,0.5],[1,0.5]];portConstraint=eastwest;" parent="hRKfSwiD_nlizp8E8gX8-12" vertex="1">
          <mxGeometry y="203" width="158" height="26" as="geometry" />
        </mxCell>
        <mxCell id="hRKfSwiD_nlizp8E8gX8-42" value="+play()" style="text;strokeColor=none;fillColor=none;align=left;verticalAlign=top;spacingLeft=4;spacingRight=4;overflow=hidden;rotatable=0;points=[[0,0.5],[1,0.5]];portConstraint=eastwest;" parent="hRKfSwiD_nlizp8E8gX8-12" vertex="1">
          <mxGeometry y="229" width="158" height="26" as="geometry" />
        </mxCell>
        <mxCell id="hRKfSwiD_nlizp8E8gX8-43" value="+chooseGame()" style="text;strokeColor=none;fillColor=none;align=left;verticalAlign=top;spacingLeft=4;spacingRight=4;overflow=hidden;rotatable=0;points=[[0,0.5],[1,0.5]];portConstraint=eastwest;" parent="hRKfSwiD_nlizp8E8gX8-12" vertex="1">
          <mxGeometry y="255" width="158" height="26" as="geometry" />
        </mxCell>
        <mxCell id="hRKfSwiD_nlizp8E8gX8-15" value="+quit()" style="text;strokeColor=none;fillColor=none;align=left;verticalAlign=top;spacingLeft=4;spacingRight=4;overflow=hidden;rotatable=0;points=[[0,0.5],[1,0.5]];portConstraint=eastwest;" parent="hRKfSwiD_nlizp8E8gX8-12" vertex="1">
          <mxGeometry y="281" width="158" height="22" as="geometry" />
        </mxCell>
        <mxCell id="hRKfSwiD_nlizp8E8gX8-109" value="1..*" style="text;html=1;strokeColor=none;fillColor=none;align=center;verticalAlign=middle;whiteSpace=wrap;rounded=0;fontSize=12;" parent="1" vertex="1">
          <mxGeometry x="406" y="235" width="40" height="20" as="geometry" />
        </mxCell>
        <mxCell id="hRKfSwiD_nlizp8E8gX8-110" value="1,1" style="text;html=1;strokeColor=none;fillColor=none;align=center;verticalAlign=middle;whiteSpace=wrap;rounded=0;fontSize=12;" parent="1" vertex="1">
          <mxGeometry x="430" y="102" width="40" height="20" as="geometry" />
        </mxCell>
        <mxCell id="hRKfSwiD_nlizp8E8gX8-112" value="1..*" style="text;html=1;strokeColor=none;fillColor=none;align=center;verticalAlign=middle;whiteSpace=wrap;rounded=0;fontSize=12;" parent="1" vertex="1">
          <mxGeometry x="283" y="336" width="40" height="20" as="geometry" />
        </mxCell>
        <mxCell id="hRKfSwiD_nlizp8E8gX8-113" value="1,1" style="text;html=1;strokeColor=none;fillColor=none;align=center;verticalAlign=middle;whiteSpace=wrap;rounded=0;fontSize=12;" parent="1" vertex="1">
          <mxGeometry x="410" y="500" width="40" height="20" as="geometry" />
        </mxCell>
        <mxCell id="hRKfSwiD_nlizp8E8gX8-114" value="1,1" style="text;html=1;strokeColor=none;fillColor=none;align=center;verticalAlign=middle;whiteSpace=wrap;rounded=0;fontSize=12;" parent="1" vertex="1">
          <mxGeometry x="126" y="306" width="40" height="20" as="geometry" />
        </mxCell>
        <mxCell id="hRKfSwiD_nlizp8E8gX8-115" value="1..*" style="text;html=1;strokeColor=none;fillColor=none;align=center;verticalAlign=middle;whiteSpace=wrap;rounded=0;fontSize=12;" parent="1" vertex="1">
          <mxGeometry x="290" y="490" width="40" height="20" as="geometry" />
        </mxCell>
        <mxCell id="OM8K8uQX1g5427cTju4Y-1" value="1...*" style="text;html=1;strokeColor=none;fillColor=none;align=center;verticalAlign=middle;whiteSpace=wrap;rounded=0;fontSize=12;" parent="1" vertex="1">
          <mxGeometry x="330" y="50" width="40" height="20" as="geometry" />
        </mxCell>
        <mxCell id="OM8K8uQX1g5427cTju4Y-5" style="edgeStyle=orthogonalEdgeStyle;rounded=0;orthogonalLoop=1;jettySize=auto;html=1;exitX=1;exitY=0.5;exitDx=0;exitDy=0;entryX=0.5;entryY=0;entryDx=0;entryDy=0;endArrow=none;endFill=0;" parent="1" source="hRKfSwiD_nlizp8E8gX8-72" target="hRKfSwiD_nlizp8E8gX8-21" edge="1">
          <mxGeometry relative="1" as="geometry">
            <Array as="points">
              <mxPoint x="320" y="40" />
              <mxPoint x="560" y="40" />
            </Array>
          </mxGeometry>
        </mxCell>
        <mxCell id="OM8K8uQX1g5427cTju4Y-12" value="1,1" style="text;html=1;strokeColor=none;fillColor=none;align=center;verticalAlign=middle;whiteSpace=wrap;rounded=0;fontSize=12;" parent="1" vertex="1">
          <mxGeometry x="570" y="50" width="40" height="20" as="geometry" />
        </mxCell>
        <mxCell id="hRKfSwiD_nlizp8E8gX8-96" value="Hand" style="swimlane;fontStyle=1;align=center;verticalAlign=top;childLayout=stackLayout;horizontal=1;startSize=26;horizontalStack=0;resizeParent=1;resizeParentMax=0;resizeLast=0;collapsible=1;marginBottom=0;fontSize=12;" parent="1" vertex="1">
          <mxGeometry x="80" y="212" width="160" height="86" as="geometry" />
        </mxCell>
        <mxCell id="hRKfSwiD_nlizp8E8gX8-101" value="+id_hand: num&#xa;" style="text;strokeColor=none;fillColor=none;align=left;verticalAlign=top;spacingLeft=4;spacingRight=4;overflow=hidden;rotatable=0;points=[[0,0.5],[1,0.5]];portConstraint=eastwest;fontStyle=4;fontSize=12;" parent="hRKfSwiD_nlizp8E8gX8-96" vertex="1">
          <mxGeometry y="26" width="160" height="26" as="geometry" />
        </mxCell>
        <mxCell id="hRKfSwiD_nlizp8E8gX8-100" value="+nb_cards : num" style="text;strokeColor=none;fillColor=none;align=left;verticalAlign=top;spacingLeft=4;spacingRight=4;overflow=hidden;rotatable=0;points=[[0,0.5],[1,0.5]];portConstraint=eastwest;fontStyle=0;fontSize=12;" parent="hRKfSwiD_nlizp8E8gX8-96" vertex="1">
          <mxGeometry y="52" width="160" height="26" as="geometry" />
        </mxCell>
        <mxCell id="hRKfSwiD_nlizp8E8gX8-98" value="" style="line;strokeWidth=1;fillColor=none;align=left;verticalAlign=middle;spacingTop=-1;spacingLeft=3;spacingRight=3;rotatable=0;labelPosition=right;points=[];portConstraint=eastwest;" parent="hRKfSwiD_nlizp8E8gX8-96" vertex="1">
          <mxGeometry y="78" width="160" height="8" as="geometry" />
        </mxCell>
        <mxCell id="xn5o_ZtAHEq3bz5dLrVA-2" value="Admin" style="swimlane;fontStyle=1;align=center;verticalAlign=top;childLayout=stackLayout;horizontal=1;startSize=26;horizontalStack=0;resizeParent=1;resizeParentMax=0;resizeLast=0;collapsible=1;marginBottom=0;" parent="1" vertex="1">
          <mxGeometry x="88" y="341" width="160" height="138" as="geometry" />
        </mxCell>
        <mxCell id="xn5o_ZtAHEq3bz5dLrVA-3" value="+id_admin : num" style="text;strokeColor=none;fillColor=none;align=left;verticalAlign=top;spacingLeft=4;spacingRight=4;overflow=hidden;rotatable=0;points=[[0,0.5],[1,0.5]];portConstraint=eastwest;fontStyle=4" parent="xn5o_ZtAHEq3bz5dLrVA-2" vertex="1">
          <mxGeometry y="26" width="160" height="26" as="geometry" />
        </mxCell>
        <mxCell id="xn5o_ZtAHEq3bz5dLrVA-4" value="+motdepasse : str" style="text;strokeColor=none;fillColor=none;align=left;verticalAlign=top;spacingLeft=4;spacingRight=4;overflow=hidden;rotatable=0;points=[[0,0.5],[1,0.5]];portConstraint=eastwest;" parent="xn5o_ZtAHEq3bz5dLrVA-2" vertex="1">
          <mxGeometry y="52" width="160" height="26" as="geometry" />
        </mxCell>
        <mxCell id="xn5o_ZtAHEq3bz5dLrVA-6" value="" style="line;strokeWidth=1;fillColor=none;align=left;verticalAlign=middle;spacingTop=-1;spacingLeft=3;spacingRight=3;rotatable=0;labelPosition=right;points=[];portConstraint=eastwest;" parent="xn5o_ZtAHEq3bz5dLrVA-2" vertex="1">
          <mxGeometry y="78" width="160" height="8" as="geometry" />
        </mxCell>
        <mxCell id="xn5o_ZtAHEq3bz5dLrVA-8" value="+createUserAccount()" style="text;strokeColor=none;fillColor=none;align=left;verticalAlign=top;spacingLeft=4;spacingRight=4;overflow=hidden;rotatable=0;points=[[0,0.5],[1,0.5]];portConstraint=eastwest;" parent="xn5o_ZtAHEq3bz5dLrVA-2" vertex="1">
          <mxGeometry y="86" width="160" height="26" as="geometry" />
        </mxCell>
        <mxCell id="xn5o_ZtAHEq3bz5dLrVA-10" value="+deleteUserAccount()" style="text;strokeColor=none;fillColor=none;align=left;verticalAlign=top;spacingLeft=4;spacingRight=4;overflow=hidden;rotatable=0;points=[[0,0.5],[1,0.5]];portConstraint=eastwest;" parent="xn5o_ZtAHEq3bz5dLrVA-2" vertex="1">
          <mxGeometry y="112" width="160" height="26" as="geometry" />
        </mxCell>
        <mxCell id="rLnb3EBj2NEMgNKpq2du-1" value="" style="endArrow=block;html=1;exitX=0.444;exitY=1.115;exitDx=0;exitDy=0;exitPerimeter=0;endFill=0;" edge="1" parent="1" source="xn5o_ZtAHEq3bz5dLrVA-10">
          <mxGeometry width="50" height="50" relative="1" as="geometry">
            <mxPoint x="386" y="440" as="sourcePoint" />
            <mxPoint x="159" y="518" as="targetPoint" />
          </mxGeometry>
        </mxCell>
        <mxCell id="rLnb3EBj2NEMgNKpq2du-2" value="1..*" style="text;html=1;strokeColor=none;fillColor=none;align=center;verticalAlign=middle;whiteSpace=wrap;rounded=0;fontSize=12;" vertex="1" parent="1">
          <mxGeometry x="493" y="286" width="40" height="20" as="geometry" />
        </mxCell>
        <mxCell id="rLnb3EBj2NEMgNKpq2du-3" value="1,1" style="text;html=1;strokeColor=none;fillColor=none;align=center;verticalAlign=middle;whiteSpace=wrap;rounded=0;fontSize=12;" vertex="1" parent="1">
          <mxGeometry x="594" y="289" width="40" height="20" as="geometry" />
        </mxCell>
      </root>
    </mxGraphModel>
  </diagram>
</mxfile>
